<?xml version="1.0" standalone="no"?>
<!DOCTYPE svg PUBLIC "-//W3C//DTD SVG 20010904//EN"
 "http://www.w3.org/TR/2001/REC-SVG-20010904/DTD/svg10.dtd">
<svg version="1.0" xmlns="http://www.w3.org/2000/svg"
 width="640.000000pt" height="640.000000pt" viewBox="0 0 640.000000 640.000000"
 preserveAspectRatio="xMidYMid meet">
<metadata>
Created by potrace 1.11, written by Peter Selinger 2001-2013
</metadata>
<g transform="translate(0.000000,640.000000) scale(0.100000,-0.100000)"
fill="#000000" stroke="none">
<path d="M2979 6395 c-2 -1 -37 -6 -77 -9 -84 -7 -103 -10 -265 -37 -493 -82
-985 -302 -1409 -629 -148 -114 -401 -364 -522 -515 -294 -368 -499 -781 -610
-1232 -31 -124 -38 -159 -52 -243 -3 -14 -6 -36 -9 -50 -3 -14 -7 -52 -11 -85
-3 -33 -8 -73 -11 -90 -9 -51 -11 -516 -3 -580 5 -33 11 -85 14 -115 39 -348
182 -808 341 -1095 18 -33 45 -82 60 -110 202 -365 569 -766 940 -1026 331
-232 716 -405 1100 -494 92 -22 276 -54 345 -61 30 -3 66 -8 80 -11 41 -10
498 -11 585 -2 186 20 174 18 345 51 753 144 1444 573 1924 1197 228 297 416
666 524 1031 49 165 65 242 107 508 20 126 27 531 13 682 -25 246 -49 374
-115 608 -189 674 -623 1289 -1208 1712 -424 307 -968 519 -1475 576 -25 3
-58 7 -75 10 -37 5 -531 14 -536 9z m285 -114 c107 -47 126 -188 36 -264 -91
-77 -238 -21 -255 97 -8 52 -1 80 30 122 45 60 118 77 189 45z m-758 -100
c103 -47 124 -185 39 -260 -118 -103 -297 6 -256 157 15 57 34 79 86 103 51
23 79 23 131 0z m1533 -6 c92 -47 106 -183 26 -254 -65 -57 -155 -54 -216 8
-52 51 -61 111 -28 178 42 84 133 112 218 68z m-2222 -296 c44 -27 77 -98 71
-153 -18 -156 -229 -192 -298 -50 -25 51 -25 89 0 138 43 86 145 115 227 65z
m2928 5 c16 -8 41 -30 54 -49 73 -108 -4 -249 -135 -247 -112 1 -188 127 -138
225 43 83 133 113 219 71z m-1282 -19 c58 -7 164 -22 217 -31 159 -26 408
-102 580 -177 131 -57 329 -160 368 -192 1 -1 -24 -60 -56 -131 -33 -71 -69
-151 -82 -179 -22 -49 -370 -811 -425 -930 -15 -33 -76 -167 -136 -297 -60
-131 -114 -250 -122 -264 l-13 -26 -165 189 c-91 103 -209 240 -264 303 -55
63 -102 117 -105 120 -3 3 -145 165 -314 360 -170 195 -323 371 -340 390 -17
19 -60 69 -96 110 -36 41 -69 80 -75 86 -5 6 -80 91 -165 189 -85 98 -165 190
-177 203 -13 14 -23 28 -23 32 0 12 130 67 268 114 127 43 307 90 392 101 25
3 52 8 60 10 22 6 114 17 205 24 92 8 391 5 468 -4z m-932 -1102 c316 -443
577 -812 581 -818 6 -11 -126 -40 -492 -110 -14 -3 -59 -11 -100 -20 -41 -8
-86 -17 -100 -19 -14 -3 -86 -17 -160 -31 -74 -15 -146 -28 -160 -31 -14 -2
-45 -9 -70 -14 -25 -5 -57 -12 -72 -15 -16 -3 -40 -8 -55 -11 -16 -3 -95 -18
-178 -34 -180 -35 -636 -124 -944 -185 -123 -25 -230 -45 -238 -45 -9 0 -12 8
-9 23 3 12 8 49 11 82 3 33 8 67 10 75 2 8 6 31 9 50 44 293 176 645 349 930
211 349 527 667 872 881 117 73 159 97 166 98 4 1 265 -362 580 -806z m-1341
659 c99 -40 119 -186 37 -266 -42 -41 -146 -45 -196 -9 -152 114 -18 347 159
275z m4163 -3 c38 -17 78 -80 82 -128 4 -49 -27 -115 -67 -144 -14 -11 -49
-22 -76 -25 -122 -11 -206 107 -158 222 14 35 66 80 101 89 28 7 87 0 118 -14z
m-550 -76 c502 -380 851 -909 996 -1506 16 -67 32 -138 35 -157 10 -58 24
-162 31 -220 10 -75 14 -360 6 -365 -4 -2 -36 -6 -71 -9 -36 -4 -81 -8 -100
-11 -19 -2 -62 -7 -95 -10 -150 -13 -183 -16 -225 -20 -47 -5 -74 -7 -260 -25
-63 -6 -133 -13 -155 -15 -22 -2 -74 -7 -115 -10 -41 -3 -86 -8 -100 -10 -14
-2 -63 -7 -110 -11 -47 -3 -92 -7 -100 -9 -8 -2 -53 -6 -100 -9 -47 -4 -96 -9
-110 -11 -14 -2 -63 -7 -110 -11 -47 -3 -92 -7 -101 -9 -8 -2 -53 -6 -100 -10
-46 -3 -96 -8 -111 -11 -16 -2 -28 -1 -28 4 0 10 22 74 450 1322 67 195 175
510 240 700 102 298 132 383 155 448 7 18 11 16 78 -35z m-4089 -527 c124 -52
133 -226 15 -286 -52 -27 -103 -25 -154 5 -105 61 -102 216 5 272 50 26 87 29
134 9z m5090 0 c106 -44 131 -181 48 -261 -37 -37 -96 -52 -150 -40 -39 8 -99
69 -111 112 -35 125 93 239 213 189z m-5355 -724 c41 -30 63 -67 68 -114 13
-115 -94 -202 -207 -166 -140 43 -140 243 0 301 27 11 114 -2 139 -21z m5681
-2 c98 -70 83 -223 -26 -272 -166 -73 -304 136 -171 260 50 47 140 52 197 12z
m-2585 -692 l114 -198 -114 -197 -113 -198 -232 0 -232 0 -114 198 -113 197
19 33 c10 17 49 86 87 151 37 65 76 133 86 150 10 17 22 38 27 48 9 14 35 16
241 15 l231 -2 113 -197z m-1025 92 c0 -4 -23 -74 -51 -156 -28 -82 -102 -297
-164 -479 -170 -495 -339 -990 -470 -1370 -65 -187 -127 -370 -138 -408 -12
-37 -25 -67 -29 -67 -23 0 -230 172 -349 290 -312 309 -533 664 -663 1069 -35
107 -79 279 -90 346 -2 17 -9 59 -15 95 -21 135 -37 464 -22 488 6 10 62 18
186 28 33 2 101 9 150 14 50 5 122 12 160 15 39 3 86 8 105 10 19 2 64 7 100
10 36 3 85 8 110 10 25 3 70 7 100 10 30 3 75 7 100 10 25 2 74 7 110 10 36 3
81 8 100 10 19 2 69 7 110 10 41 3 91 8 110 10 19 2 91 9 160 15 69 6 139 13
155 15 17 2 68 7 115 11 47 4 86 7 88 9 6 5 32 1 32 -5z m-2171 -158 c50 -37
66 -70 66 -132 0 -63 -16 -95 -69 -134 -43 -32 -132 -29 -179 7 -126 96 -49
299 107 283 28 -3 61 -13 75 -24z m5883 -3 c17 -12 39 -42 50 -66 67 -151
-109 -287 -240 -187 -96 74 -77 218 36 271 38 18 117 8 154 -18z m-367 -381
c-2 -13 -6 -50 -10 -83 -22 -209 -106 -515 -200 -732 -227 -520 -627 -968
-1122 -1254 -47 -27 -86 -49 -88 -49 -2 0 -79 107 -171 238 -92 130 -180 253
-195 272 -25 34 -507 713 -568 801 -17 24 -76 107 -131 184 -55 77 -96 141
-92 142 4 1 102 21 217 43 116 23 253 50 305 60 52 11 109 22 125 24 17 3 39
8 50 10 19 4 606 119 980 192 99 20 248 49 330 65 83 16 164 32 180 35 17 3
102 20 190 38 203 42 205 42 200 14z m-3092 -377 c60 -69 121 -140 136 -156
14 -17 87 -100 161 -185 74 -85 137 -157 140 -160 3 -3 37 -41 75 -85 38 -44
74 -85 80 -91 5 -6 30 -35 55 -64 25 -29 50 -58 55 -64 6 -6 39 -45 75 -86 36
-41 67 -77 70 -80 3 -3 48 -54 100 -115 52 -60 97 -112 100 -115 3 -3 82 -93
175 -200 93 -107 172 -197 175 -200 3 -3 42 -48 87 -101 l82 -96 -92 -38
c-364 -149 -680 -211 -1072 -209 -206 1 -293 10 -498 50 -242 47 -394 99 -665
225 -48 23 -221 120 -240 134 -2 2 10 31 26 66 16 35 53 116 82 179 77 168
422 923 462 1010 19 41 86 187 148 323 l113 249 30 -32 c17 -18 80 -89 140
-159z m-2324 1 c44 -32 64 -69 69 -124 4 -59 -17 -102 -71 -142 -44 -32 -133
-29 -179 6 -95 73 -82 219 25 269 50 23 118 19 156 -9z m5661 6 c106 -54 116
-200 18 -269 -44 -32 -134 -33 -174 -3 -66 49 -90 126 -61 194 39 90 129 122
217 78z m-5398 -697 c37 -14 85 -69 95 -109 19 -78 -20 -158 -93 -188 -42 -18
-76 -18 -118 0 -86 36 -122 133 -81 220 32 66 127 104 197 77z m5107 -12 c19
-11 42 -30 52 -42 61 -75 26 -204 -65 -242 -148 -62 -278 106 -188 243 20 31
86 62 132 62 19 0 50 -9 69 -21z m-4632 -605 c62 -25 88 -67 88 -140 0 -48 -5
-69 -21 -91 -95 -127 -290 -65 -288 93 1 115 111 184 221 138z m4157 2 c47
-20 85 -73 90 -127 12 -127 -112 -214 -223 -157 -58 30 -83 65 -89 126 -11
121 108 206 222 158z m-3534 -473 c72 -42 98 -130 61 -206 -24 -50 -49 -70
-102 -84 -96 -26 -199 53 -199 154 0 37 35 104 67 127 49 36 121 40 173 9z
m2947 -5 c35 -21 73 -89 73 -131 0 -38 -23 -90 -51 -117 -74 -69 -193 -52
-244 35 -85 145 77 300 222 213z m-2254 -282 c121 -50 125 -224 7 -284 -71
-36 -155 -16 -201 50 -32 44 -33 134 -3 175 50 67 124 90 197 59z m1537 -8
c49 -34 72 -71 77 -125 7 -84 -49 -153 -138 -168 -96 -16 -190 80 -175 180 17
110 148 172 236 113z m-752 -105 c42 -32 63 -66 68 -116 17 -152 -167 -233
-273 -121 -73 78 -44 211 57 253 37 16 117 7 148 -16z"/>
</g>
</svg>
